<svg width="25" height="29" viewBox="0 0 25 29" fill="none" xmlns="http://www.w3.org/2000/svg">
<path d="M22.3214 0H2.67857C1.25 0 0 1.26875 0 2.71875V26.2812C0 27.7313 1.25 29 2.67857 29H22.3214C23.75 29 25 27.7313 25 26.2812V2.71875C25 1.26875 23.75 0 22.3214 0ZM7.14286 24.65C7.14286 25.0125 6.78571 25.375 6.42857 25.375H4.28571C3.92857 25.375 3.57143 25.0125 3.57143 24.65V22.475C3.57143 22.1125 3.92857 21.75 4.28571 21.75H6.42857C6.78571 21.75 7.14286 22.1125 7.14286 22.475V24.65ZM7.14286 17.4C7.14286 17.7625 6.78571 18.125 6.42857 18.125H4.28571C3.92857 18.125 3.57143 17.7625 3.57143 17.4V15.225C3.57143 14.8625 3.92857 14.5 4.28571 14.5H6.42857C6.78571 14.5 7.14286 14.8625 7.14286 15.225V17.4ZM14.2857 24.65C14.2857 25.0125 13.9286 25.375 13.5714 25.375H11.4286C11.0714 25.375 10.7143 25.0125 10.7143 24.65V22.475C10.7143 22.1125 11.0714 21.75 11.4286 21.75H13.5714C13.9286 21.75 14.2857 22.1125 14.2857 22.475V24.65ZM14.2857 17.4C14.2857 17.7625 13.9286 18.125 13.5714 18.125H11.4286C11.0714 18.125 10.7143 17.7625 10.7143 17.4V15.225C10.7143 14.8625 11.0714 14.5 11.4286 14.5H13.5714C13.9286 14.5 14.2857 14.8625 14.2857 15.225V17.4ZM21.4286 24.65C21.4286 25.0125 21.0714 25.375 20.7143 25.375H18.5714C18.2143 25.375 17.8571 25.0125 17.8571 24.65V15.225C17.8571 14.8625 18.2143 14.5 18.5714 14.5H20.7143C21.0714 14.5 21.4286 14.8625 21.4286 15.225V24.65ZM21.4286 10.15C21.4286 10.5125 21.0714 10.875 20.7143 10.875H4.28571C3.92857 10.875 3.57143 10.5125 3.57143 10.15V4.35C3.57143 3.9875 3.92857 3.625 4.28571 3.625H20.7143C21.0714 3.625 21.4286 3.9875 21.4286 4.35V10.15Z" fill="#3F4459"/>
</svg>
