<svg width="30" height="26" viewBox="0 0 30 26" fill="none" xmlns="http://www.w3.org/2000/svg">
<path d="M3.61934 21.4152L4.64473 20.2458C4.8488 20.0204 4.95546 19.7247 4.9418 19.4222V19.2301C4.9418 18.8036 4.7168 18.5714 4.27734 18.5714H0.9375C0.81318 18.5714 0.693951 18.6203 0.606044 18.7074C0.518136 18.7945 0.46875 18.9126 0.46875 19.0357V19.9643C0.46875 20.0874 0.518136 20.2055 0.606044 20.2926C0.693951 20.3797 0.81318 20.4286 0.9375 20.4286H2.2752C2.04788 20.6554 1.83274 20.8938 1.63066 21.143L1.30195 21.5492C1.06758 21.8435 0.994336 22.1371 1.13789 22.4128L1.19941 22.5248C1.3752 22.8591 1.56797 22.9821 1.91719 22.9821H2.19434C2.79961 22.9821 3.12832 23.1237 3.12832 23.5097C3.12832 23.7836 2.88223 23.9867 2.28691 23.9867C1.97586 23.9843 1.66816 23.9228 1.38047 23.8057C1.0002 23.5805 0.692578 23.6025 0.466406 23.9867L0.138867 24.5271C-0.0791016 24.8828 -0.0480469 25.2072 0.292969 25.4521C0.744727 25.7243 1.48711 26 2.46094 26C4.4625 26 5.30273 24.6797 5.30273 23.4395C5.30098 22.6049 4.76836 21.7123 3.61934 21.4152ZM29.0625 11.1429H10.3125C10.0639 11.1429 9.8254 11.2407 9.64959 11.4148C9.47377 11.589 9.375 11.8252 9.375 12.0714V13.9286C9.375 14.1748 9.47377 14.411 9.64959 14.5852C9.8254 14.7593 10.0639 14.8571 10.3125 14.8571H29.0625C29.3111 14.8571 29.5496 14.7593 29.7254 14.5852C29.9012 14.411 30 14.1748 30 13.9286V12.0714C30 11.8252 29.9012 11.589 29.7254 11.4148C29.5496 11.2407 29.3111 11.1429 29.0625 11.1429ZM29.0625 1.85714H10.3125C10.0639 1.85714 9.8254 1.95497 9.64959 2.12912C9.47377 2.30326 9.375 2.53944 9.375 2.78571V4.64286C9.375 4.88913 9.47377 5.12532 9.64959 5.29946C9.8254 5.4736 10.0639 5.57143 10.3125 5.57143H29.0625C29.3111 5.57143 29.5496 5.4736 29.7254 5.29946C29.9012 5.12532 30 4.88913 30 4.64286V2.78571C30 2.53944 29.9012 2.30326 29.7254 2.12912C29.5496 1.95497 29.3111 1.85714 29.0625 1.85714ZM29.0625 20.4286H10.3125C10.0639 20.4286 9.8254 20.5264 9.64959 20.7005C9.47377 20.8747 9.375 21.1109 9.375 21.3571V23.2143C9.375 23.4606 9.47377 23.6967 9.64959 23.8709C9.8254 24.045 10.0639 24.1429 10.3125 24.1429H29.0625C29.3111 24.1429 29.5496 24.045 29.7254 23.8709C29.9012 23.6967 30 23.4606 30 23.2143V21.3571C30 21.1109 29.9012 20.8747 29.7254 20.7005C29.5496 20.5264 29.3111 20.4286 29.0625 20.4286ZM0.9375 7.42857H4.6875C4.81182 7.42857 4.93105 7.37966 5.01896 7.29259C5.10686 7.20551 5.15625 7.08742 5.15625 6.96429V6.03571C5.15625 5.91258 5.10686 5.79448 5.01896 5.70741C4.93105 5.62034 4.81182 5.57143 4.6875 5.57143H3.75V0.464286C3.75 0.341149 3.70061 0.223057 3.61271 0.135986C3.5248 0.0489158 3.40557 0 3.28125 0H1.875C1.78812 0.000153589 1.70298 0.0242222 1.62911 0.0695189C1.55523 0.114816 1.49552 0.179558 1.45664 0.256518L0.987891 1.18509C0.952161 1.25581 0.935261 1.3344 0.938795 1.41341C0.942329 1.49241 0.966179 1.56922 1.00808 1.63653C1.04999 1.70385 1.10856 1.75945 1.17824 1.79805C1.24792 1.83666 1.32641 1.857 1.40625 1.85714H1.875V5.57143H0.9375C0.81318 5.57143 0.693951 5.62034 0.606044 5.70741C0.518136 5.79448 0.46875 5.91258 0.46875 6.03571V6.96429C0.46875 7.08742 0.518136 7.20551 0.606044 7.29259C0.693951 7.37966 0.81318 7.42857 0.9375 7.42857ZM0.708398 16.7143H4.6875C4.81182 16.7143 4.93105 16.6654 5.01896 16.5783C5.10686 16.4912 5.15625 16.3731 5.15625 16.25V15.3214C5.15625 15.1983 5.10686 15.0802 5.01896 14.9931C4.93105 14.9061 4.81182 14.8571 4.6875 14.8571H2.42109C2.61387 14.26 5.25352 13.773 5.25352 11.5816C5.25352 9.89509 3.78867 9.28571 2.64785 9.28571C1.39629 9.28571 0.667383 9.86607 0.277148 10.3739C0.0210938 10.6983 0.101367 11.003 0.441211 11.2659L0.943945 11.6652C1.27266 11.9298 1.58848 11.8085 1.88848 11.5236C2.03645 11.38 2.2356 11.2999 2.44277 11.3007C2.63789 11.3007 2.98652 11.3912 2.98652 11.8085C2.98828 12.5467 0 13.076 0 15.82V16.0521C0 16.4821 0.297656 16.7143 0.708398 16.7143Z" fill="#3F4459"/>
</svg>
