<svg width="29" height="23" viewBox="0 0 29 23" fill="none" xmlns="http://www.w3.org/2000/svg">
<path d="M13.6468 6.48223L16.3791 7.12461C16.4719 7.14397 16.5549 7.19014 16.6153 7.25594C16.6757 7.32174 16.71 7.40349 16.7129 7.48848C16.7129 7.69512 16.507 7.86582 16.2537 7.86582H14.4614C14.2683 7.86532 14.077 7.83177 13.898 7.76699C13.6342 7.66816 13.3301 7.69062 13.1278 7.85684L12.1712 8.64297C12.1269 8.67752 12.0888 8.7178 12.0579 8.76246C12.0184 8.82026 11.9921 8.88446 11.9806 8.95137C11.969 9.01828 11.9724 9.08656 11.9906 9.15229C12.0087 9.21801 12.0413 9.27989 12.0864 9.33433C12.1315 9.38878 12.1882 9.43473 12.2532 9.46953C12.783 9.7532 13.3761 9.92956 13.9907 9.98613V10.7812C13.9907 11.1766 14.3849 11.5 14.8652 11.5H15.7397C16.2205 11.5 16.6147 11.1766 16.6147 10.7812V9.99062C18.2726 9.82891 19.5267 8.59805 19.3082 7.16055C19.1497 6.12734 18.1775 5.30527 16.9641 5.01777L14.2318 4.37539C14.139 4.35603 14.056 4.30986 13.9957 4.24406C13.9353 4.17826 13.901 4.09651 13.898 4.01152C13.898 3.80488 14.104 3.63418 14.3572 3.63418H16.1495C16.3434 3.63445 16.5353 3.668 16.7149 3.73301C16.9782 3.83184 17.2828 3.80938 17.4852 3.64316L18.4418 2.85703C18.4846 2.82321 18.5214 2.78384 18.551 2.74023C18.5909 2.68245 18.6175 2.6182 18.6293 2.55119C18.6411 2.48419 18.638 2.41575 18.62 2.34984C18.602 2.28392 18.5696 2.22184 18.5246 2.16718C18.4796 2.11252 18.4228 2.06636 18.3577 2.03137C17.8278 1.7477 17.2345 1.57135 16.6198 1.51477V0.71875C16.6198 0.323437 16.2261 0 15.7452 0H14.8707C14.3899 0 13.9962 0.323437 13.9962 0.71875V1.50937C12.3403 1.67109 11.0837 2.90195 11.3022 4.33945C11.4603 5.37266 12.4355 6.19473 13.6468 6.48223ZM28.4592 14.7389C27.8651 14.2582 26.9387 14.2896 26.3144 14.7389L21.6624 18.0586C21.0914 18.4674 20.3807 18.6893 19.6486 18.6875H13.6941C13.4805 18.6875 13.2756 18.6118 13.1245 18.477C12.9735 18.3422 12.8886 18.1594 12.8886 17.9688C12.8886 17.7781 12.9735 17.5953 13.1245 17.4605C13.2756 17.3257 13.4805 17.25 13.6941 17.25H17.6357C18.4363 17.25 19.1819 16.7604 19.3098 16.0551C19.3255 15.9741 19.3333 15.892 19.3329 15.8098C19.3321 15.429 19.162 15.0641 18.86 14.7951C18.5579 14.5261 18.1486 14.375 17.7218 14.375H9.66646C8.30792 14.3753 6.99079 14.7923 5.93581 15.556L3.59471 17.25H0.805538C0.591896 17.25 0.387004 17.3257 0.235937 17.4605C0.084869 17.5953 0 17.7781 0 17.9688L0 22.2812C0 22.4719 0.084869 22.6547 0.235937 22.7895C0.387004 22.9243 0.591896 23 0.805538 23H18.7675C19.4994 23.0005 20.2096 22.7787 20.7814 22.3711L28.3952 16.9355C28.5784 16.8048 28.7273 16.64 28.8317 16.4526C28.9361 16.2652 28.9933 16.0598 28.9994 15.8506C29.0056 15.6414 28.9605 15.4335 28.8672 15.2415C28.774 15.0495 28.6349 14.8779 28.4597 14.7389H28.4592Z" fill="#353956"/>
</svg>
