<svg width="25" height="15" viewBox="0 0 25 15" fill="none" xmlns="http://www.w3.org/2000/svg">
<path d="M23.75 0H1.25C0.559766 0 0 0.479799 0 1.07143V13.9286C0 14.5202 0.559766 15 1.25 15H23.75C24.4402 15 25 14.5202 25 13.9286V1.07143C25 0.479799 24.4402 0 23.75 0ZM6.875 9.9067V10.4464C6.875 10.5944 6.73516 10.7143 6.5625 10.7143H5.9375C5.76484 10.7143 5.625 10.5944 5.625 10.4464V9.901C5.18398 9.88158 4.75508 9.74966 4.39961 9.52098C4.24727 9.42288 4.23945 9.22734 4.37734 9.11451L4.83633 8.73917C4.94453 8.65078 5.10547 8.64676 5.23203 8.71473C5.3832 8.79576 5.55469 8.83929 5.73281 8.83929H6.83086C7.08477 8.83929 7.2918 8.64107 7.2918 8.39766C7.2918 8.19844 7.15078 8.02299 6.94922 7.97143L5.19141 7.51942C4.46523 7.33259 3.95781 6.73527 3.95781 6.06663C3.95781 5.24565 4.70195 4.57868 5.62461 4.55759V4.01786C5.62461 3.86987 5.76445 3.75 5.93711 3.75H6.56211C6.73477 3.75 6.87461 3.86987 6.87461 4.01786V4.56328C7.31563 4.5827 7.74453 4.71429 8.1 4.9433C8.25234 5.04141 8.26016 5.23694 8.12226 5.34978L7.66328 5.72511C7.55508 5.8135 7.39414 5.81752 7.26758 5.74955C7.11641 5.66819 6.94492 5.625 6.7668 5.625H5.66875C5.41484 5.625 5.20781 5.82321 5.20781 6.06663C5.20781 6.26585 5.34883 6.44129 5.55039 6.49286L7.3082 6.94487C8.03437 7.1317 8.5418 7.72902 8.5418 8.39766C8.5418 9.21897 7.79766 9.8856 6.875 9.9067ZM16.25 9.375C16.25 9.52299 16.1102 9.64286 15.9375 9.64286H11.5625C11.3898 9.64286 11.25 9.52299 11.25 9.375V8.83929C11.25 8.69129 11.3898 8.57143 11.5625 8.57143H15.9375C16.1102 8.57143 16.25 8.69129 16.25 8.83929V9.375ZM22.5 9.375C22.5 9.52299 22.3602 9.64286 22.1875 9.64286H19.0625C18.8898 9.64286 18.75 9.52299 18.75 9.375V8.83929C18.75 8.69129 18.8898 8.57143 19.0625 8.57143H22.1875C22.3602 8.57143 22.5 8.69129 22.5 8.83929V9.375ZM22.5 6.16071C22.5 6.30871 22.3602 6.42857 22.1875 6.42857H11.5625C11.3898 6.42857 11.25 6.30871 11.25 6.16071V5.625C11.25 5.47701 11.3898 5.35714 11.5625 5.35714H22.1875C22.3602 5.35714 22.5 5.47701 22.5 5.625V6.16071Z" fill="#6A2DFA"/>
</svg>
