<svg width="25" height="14" viewBox="0 0 25 14" fill="none" xmlns="http://www.w3.org/2000/svg">
<path d="M23.75 0H1.25C0.559766 0 0 0.522448 0 1.16667V12.8333C0 13.4776 0.559766 14 1.25 14H23.75C24.4402 14 25 13.4776 25 12.8333V1.16667C25 0.522448 24.4402 0 23.75 0ZM1.875 12.25V9.91667C3.25586 9.91667 4.375 10.9612 4.375 12.25H1.875ZM1.875 4.08333V1.75H4.375C4.375 3.0388 3.25586 4.08333 1.875 4.08333ZM12.5 10.5C10.7738 10.5 9.375 8.93266 9.375 7C9.375 5.06698 10.7742 3.5 12.5 3.5C14.2258 3.5 15.625 5.06698 15.625 7C15.625 8.93339 14.2254 10.5 12.5 10.5ZM23.125 12.25H20.625C20.625 10.9612 21.7441 9.91667 23.125 9.91667V12.25ZM23.125 4.08333C21.7441 4.08333 20.625 3.0388 20.625 1.75H23.125V4.08333Z" fill="#6A2DFA"/>
</svg>
